<?xml version="1.0" encoding="UTF-8" standalone="no"?>
<!-- Created with Inkscape (http://www.inkscape.org/) -->

<svg
   xmlns:dc="http://purl.org/dc/elements/1.1/"
   xmlns:cc="http://creativecommons.org/ns#"
   xmlns:rdf="http://www.w3.org/1999/02/22-rdf-syntax-ns#"
   xmlns:svg="http://www.w3.org/2000/svg"
   xmlns="http://www.w3.org/2000/svg"
   xmlns:sodipodi="http://sodipodi.sourceforge.net/DTD/sodipodi-0.dtd"
   xmlns:inkscape="http://www.inkscape.org/namespaces/inkscape"
   version="1.1"
   id="svg289"
   width="625"
   height="90"
   viewBox="0 0 625 90"
   sodipodi:docname="logo.svg"
   inkscape:version="0.92.2 5c3e80d, 2017-08-06">
  <metadata
     id="metadata295">
    <rdf:RDF>
      <cc:Work
         rdf:about="">
        <dc:format>image/svg+xml</dc:format>
        <dc:type
           rdf:resource="http://purl.org/dc/dcmitype/StillImage" />
        <dc:title></dc:title>
      </cc:Work>
    </rdf:RDF>
  </metadata>
  <defs
     id="defs293" />
  <sodipodi:namedview
     pagecolor="#ffffff"
     bordercolor="#666666"
     borderopacity="1"
     objecttolerance="10"
     gridtolerance="10"
     guidetolerance="10"
     inkscape:pageopacity="0"
     inkscape:pageshadow="2"
     inkscape:window-width="1440"
     inkscape:window-height="830"
     id="namedview291"
     showgrid="false"
     inkscape:zoom="2"
     inkscape:cx="282.57505"
     inkscape:cy="123.39651"
     inkscape:window-x="0"
     inkscape:window-y="1"
     inkscape:window-maximized="1"
     inkscape:current-layer="svg289">
    <sodipodi:guide
       position="0,0"
       orientation="0,3000"
       id="guide320"
       inkscape:locked="false" />
    <sodipodi:guide
       position="3000,0"
       orientation="-5504,0"
       id="guide322"
       inkscape:locked="false" />
    <sodipodi:guide
       position="3000,5504"
       orientation="0,-3000"
       id="guide324"
       inkscape:locked="false" />
    <sodipodi:guide
       position="0,5504"
       orientation="5504,0"
       id="guide326"
       inkscape:locked="false" />
  </sodipodi:namedview>
  <path
     style="fill:#000000;stroke-width:0.0173461"
     d="m 32.08118,84.000099 c -4.518057,-0.08319 -8.404758,-0.595287 -10.971406,-1.445563 -1.131965,-0.374972 -1.872585,-0.758932 -2.350876,-1.218714 -0.323957,-0.311435 -0.49553,-0.616003 -0.524993,-0.93196 -0.0067,-0.07224 -0.01152,-6.676526 -0.01066,-14.676117 l 0.0017,-14.544688 0.03814,-0.137347 c 0.07386,-0.26593 0.189503,-0.45632 0.426261,-0.701649 0.931361,-0.965011 3.366281,-1.761519 6.895759,-2.255751 1.635808,-0.229025 3.65948,-0.395798 5.385965,-0.443703 0.190803,-0.0056 0.434751,-0.01398 0.542094,-0.01955 l 0.19518,-0.01007 -0.0045,-4.171872 -0.0045,-4.171815 -0.407634,-0.08298 C 29.435798,38.810388 27.430596,38.170769 25.619542,37.379117 23.51431,36.458828 21.68876,35.330003 20.190217,34.0219 c -0.31067,-0.27118 -0.925371,-0.873837 -1.191458,-1.168075 -1.763692,-1.950403 -2.790198,-4.138652 -3.111008,-6.631859 -0.07154,-0.555981 -0.03383,-0.882659 0.130531,-1.1305 0.196671,-0.296583 0.611313,-0.336726 1.179728,-0.114076 0.837557,0.328016 2.00149,1.151771 3.573296,2.528996 0.958323,0.839668 1.7495,1.590282 3.096933,2.93825 1.527748,1.528363 2.800687,2.870523 4.475943,4.719255 1.011034,1.115761 1.204644,1.346237 2.285977,2.721116 l 1.069191,1.359416 0.0087,-8.176473 0.0087,-8.176468 -0.277538,-0.188939 c -1.736161,-1.182308 -3.711012,-2.935565 -5.141128,-4.564316 -2.576326,-2.934173 -4.061206,-5.960191 -4.38925,-8.944839 -0.05782,-0.526055 -0.07571,-0.936482 -0.06527,-1.497041 0.02076,-1.115872 0.175639,-2.099643 0.501046,-3.18302 0.134746,-0.448616 0.321619,-0.7302358 0.571896,-0.8618326 0.08259,-0.043549 0.110468,-0.04857 0.257416,-0.04857 0.154937,-5.59e-5 0.172996,0.0056 0.302021,0.065492 0.197853,0.094469 0.340109,0.2017234 0.556612,0.4197496 1.48952,1.499834 3.745322,6.518854 6.342451,14.111427 0.425371,1.24356 0.440091,1.292915 0.91006,3.050082 l 0.414464,1.54969 0.0102,-0.517569 c 0.01133,-0.570497 0.02004,-0.621305 0.137935,-0.804994 0.205547,-0.320311 0.636118,-0.463747 0.990007,-0.329749 0.211439,0.08 0.399365,0.266546 0.486876,0.483176 l 0.04009,0.09932 0.0045,12.944522 0.0045,12.944523 h 0.472624 c 0.482086,0 1.238675,0.02011 1.93837,0.05192 4.924976,0.223107 8.997433,1.021179 10.872076,2.130519 0.366605,0.21691 0.698776,0.494955 0.883688,0.739726 0.106832,0.141377 0.222639,0.383515 0.255893,0.535101 0.02478,0.112888 0.02691,1.492127 0.02261,14.781977 l -0.0045,14.65747 -0.054,0.150804 c -0.133347,0.37257 -0.456443,0.729898 -0.953566,1.054509 -0.242093,0.158064 -0.822144,0.448226 -1.173421,0.586914 -2.332437,0.921014 -6.168722,1.520547 -10.672502,1.667888 -0.552319,0.01787 -2.385037,0.0335 -2.879451,0.02457 z M 20.564354,52.488312 c -0.163038,-0.299206 -0.101798,-0.58211 0.188849,-0.87244 0.970528,-0.969422 4.35062,-1.752977 8.899526,-2.063128 0.500177,-0.03406 1.264999,-0.07396 1.704253,-0.08893 l 0.351258,-0.01161 V 49.18325 48.914359 l -0.437989,0.01161 c -4.168109,0.112049 -7.950739,0.662456 -9.934576,1.445564 -0.813033,0.320926 -1.301044,0.660445 -1.471178,1.023526 -0.0402,0.08587 -0.04701,0.122886 -0.04701,0.256829 0,0.143105 0.005,0.166772 0.05943,0.277208 0.08277,0.168114 0.299213,0.383628 0.546758,0.544425 0.104434,0.06784 0.192109,0.123335 0.194817,0.123335 0.0027,0 -0.02166,-0.04859 -0.05415,-0.108426 z m 25.515129,-1.413683 c -0.435036,-0.396298 -1.127986,-0.717002 -2.237644,-1.035695 -1.940307,-0.557266 -4.864464,-0.947926 -8.117974,-1.084549 -0.60957,-0.02568 -1.622687,-0.05192 -2.007813,-0.05192 l -0.325238,-2.22e-4 v 0.257556 0.257556 l 1.10581,0.01063 c 1.253282,0.01231 1.9803,0.0374 3.117965,0.108202 3.710862,0.230869 6.829355,0.806782 8.343995,1.541036 0.104664,0.05081 0.194185,0.08872 0.198959,0.08436 0.005,-0.0056 -0.03037,-0.04355 -0.07806,-0.08687 z M 33.403784,46.31311 c 0.0095,-0.01161 0.493565,-0.628118 1.075767,-1.36924 1.153827,-1.468901 1.313301,-1.655998 2.813747,-3.300829 2.326682,-2.550545 4.691441,-4.95029 6.457361,-6.552855 1.66766,-1.513456 2.919938,-2.459207 3.855287,-2.911506 0.436426,-0.211047 0.69813,-0.283852 0.982325,-0.273245 0.142946,0.0056 0.177989,0.01343 0.279605,0.06331 0.307783,0.151643 0.438465,0.561175 0.369198,1.157022 -0.198061,1.703677 -0.729421,3.28737 -1.579801,4.708423 -0.568311,0.949714 -1.182321,1.730478 -2.019995,2.568527 -1.258993,1.259585 -2.725393,2.311527 -4.589104,3.292115 -2.155112,1.133906 -4.986275,2.125494 -7.410289,2.595381 -0.267696,0.05192 -0.256238,0.05081 -0.234101,0.0229 z m 0.03128,-13.440709 c 0.07798,-0.128411 2.184424,-2.776335 2.426404,-3.050026 2.560123,-2.896041 5.51061,-5.957681 7.590121,-7.876091 2.155252,-1.988312 3.735211,-3.13612 4.720023,-3.429019 0.14152,-0.04187 0.192505,-0.04859 0.388405,-0.04859 0.19892,-2.23e-4 0.23572,0.0056 0.312227,0.03963 0.23553,0.108315 0.372856,0.358279 0.405893,0.738777 0.01174,0.135404 0.0096,0.239745 -0.0083,0.396413 -0.378649,3.323272 -1.988954,6.124229 -4.855578,8.44575 -2.219265,1.797254 -5.230118,3.277489 -8.638357,4.246856 -0.695322,0.197815 -1.629348,0.423992 -2.116226,0.512489 -0.08585,0.01562 -0.17484,0.03294 -0.19773,0.03853 -0.03249,0.0078 -0.03842,0.0056 -0.02692,-0.01451 z"
     id="path299"
     inkscape:connector-curvature="0" />
  <text
     xml:space="preserve"
     style="font-style:normal;font-variant:normal;font-weight:normal;font-stretch:normal;font-size:66.05801392px;line-height:1.25;font-family:'PT Serif';-inkscape-font-specification:'PT Serif, Normal';font-variant-ligatures:normal;font-variant-caps:normal;font-variant-numeric:normal;font-feature-settings:normal;text-align:start;letter-spacing:0px;word-spacing:0px;writing-mode:lr-tb;text-anchor:start;fill:#000000;fill-opacity:1;stroke:none;stroke-width:1.65143728"
     x="57.818413"
     y="80.215675"
     id="text377"><tspan
       sodipodi:role="line"
       id="tspan375"
       x="57.818413"
       y="80.215675"
       style="font-style:normal;font-variant:normal;font-weight:normal;font-stretch:normal;font-size:66.05801392px;font-family:'PT Serif';-inkscape-font-specification:'PT Serif, Normal';font-variant-ligatures:normal;font-variant-caps:normal;font-variant-numeric:normal;font-feature-settings:normal;text-align:start;writing-mode:lr-tb;text-anchor:start;stroke-width:1.65143728">RaaS API reference</tspan></text>
</svg>
